<svg width="960" height="960" xmlns="http://www.w3.org/2000/svg" xmlns:svg="http://www.w3.org/2000/svg">
 <g class="layer">
  <title>Layer 1</title>
  <path d="m156,742q-33,0 -56.5,-23.5t-23.5,-56.5l0,-320q0,-33 23.5,-56.5t56.5,-23.5l640,0q33,0 56.5,23.5t23.5,56.5l0,320q0,33 -23.5,56.5t-56.5,23.5l-640,0zm0,-80l640,0l0,-320l-120,0l0,160l-80,0l0,-160l-80,0l0,160l-80,0l0,-160l-80,0l0,160l-80,0l0,-160l-120,0l0,320zm120,-160l80,0l-80,0zm160,0l80,0l-80,0zm160,0l80,0l-80,0zm-120,0z" id="svg_1"/>
 </g>
</svg>